# xmcd
#
# Track frame offsets: 
#        150
#        27310
#        54132
#        87292
#        112425
#        135007
#        154642
#        177875
#        204850
#        224075
#        246445
#        269050
#        287050
#        313717
#
# Disc length: 4421 seconds
#
# Revision: 6
# Processed by: cddbd v1.5.2PL0 Copyright (c) Steve Scherf et al.
# Submitted via: ExactAudioCopy v0.99pb5
#
DISCID=cd11430e
DTITLE=Kenny G - Moment
DYEAR=1996
DGENRE=Jazz
TTITLE0=The Moment
TTITLE1=Passages
TTITLE2=Havana
TTITLE3=Always
TTITLE4=That Somebody Was You (with Toni Braxton)
TTITLE5=The Champion's Theme
TTITLE6=Eastside Jam
TTITLE7=Moonlight
TTITLE8=Gettin' On The Step
TTITLE9=Everytime I Close My Eyes (with Babyface)
TTITLE10=Northern Lights
TTITLE11=Innocence
TTITLE12=Remember
TTITLE13=Havana - A/C Mix
EXTD=YEAR: 1996
EXTT0=
EXTT1=
EXTT2=
EXTT3=
EXTT4=
EXTT5=
EXTT6=
EXTT7=
EXTT8=
EXTT9=
EXTT10=
EXTT11=
EXTT12=
EXTT13=
PLAYORDER=
